<?xml version="1.0" encoding="utf-8"?>
<!-- Generator: Adobe Illustrator 19.0.0, SVG Export Plug-In . SVG Version: 6.00 Build 0)  -->
<svg version="1.1" id="Layer_1" xmlns="http://www.w3.org/2000/svg" xmlns:xlink="http://www.w3.org/1999/xlink" x="0px" y="0px"
	 viewBox="-235 359 123.8 123.9" style="enable-background:new -235 359 123.8 123.9;" xml:space="preserve">
<style type="text/css">
	.st0{fill:#1A526E;}
</style>
<path id="XMLID_201_" class="st0" d="M-173.1,359c-34.2,0-61.9,27.7-61.9,61.9s27.7,61.9,61.9,61.9s61.9-27.7,61.9-61.9
	C-111.1,386.7-138.9,359-173.1,359z M-150.7,391.6c4,0,7.2,6.5,7.2,14.5s-3.2,14.5-7.2,14.5s-7.2-6.5-7.2-14.5
	S-154.6,391.6-150.7,391.6z M-195.5,391.6c4,0,7.2,6.5,7.2,14.5s-3.2,14.5-7.2,14.5s-7.2-6.5-7.2-14.5S-199.5,391.6-195.5,391.6z
	 M-138.8,439.8c-1.1,3.9-2.2,8.1-4.2,11.5c-6.7,11.2-17.2,17.4-30,17.4s-23.3-6.2-30-17.4c-2.1-3.4-3.1-7.5-4.2-11.5
	c-0.8-2.8,0.4-3.7,3.3-2.9c10.3,2.5,20.6,3.8,30.9,3.9c10.3-0.1,20.6-1.4,30.9-3.9C-139.2,436.1-138,436.9-138.8,439.8z"/>
</svg>
