<?xml version="1.0" encoding="utf-8"?>
<!-- Generator: Adobe Illustrator 19.0.0, SVG Export Plug-In . SVG Version: 6.00 Build 0)  -->
<svg version="1.1" id="Layer_1" xmlns="http://www.w3.org/2000/svg" xmlns:xlink="http://www.w3.org/1999/xlink" x="0px" y="0px"
	 viewBox="-261 393 71.7 55.9" style="enable-background:new -261 393 71.7 55.9;" xml:space="preserve">
<style type="text/css">
	.st0{fill:#FFFFFF;}
</style>
<g id="XMLID_3_">
	<path id="XMLID_14_" class="st0" d="M-191.5,393h-67.3c-1.2,0-2.2,1-2.2,2.2v51.5c0,1.2,1,2.2,2.2,2.2h67.3c1.2,0,2.2-1,2.2-2.2
		v-51.5C-189.3,394-190.3,393-191.5,393z M-194.9,442.6c0,1.2-1,2.2-2.2,2.2h-56.1c-1.2,0-2.2-1-2.2-2.2V412c0-1.2,1-2.2,2.2-2.2
		h56.2c1.2,0,2.2,1,2.2,2.2L-194.9,442.6L-194.9,442.6z"/>
	<g id="XMLID_4_">
		<g id="XMLID_11_">
			<path id="XMLID_13_" class="st0" d="M-199,419.5c0,0.5-0.4,0.9-0.9,0.9h-43c-0.5,0-0.9-0.4-0.9-0.9v-3.2c0-0.5,0.4-0.9,0.9-0.9
				h43c0.5,0,0.9,0.4,0.9,0.9V419.5z"/>
			<path id="XMLID_12_" class="st0" d="M-246.3,419.5c0,0.5-0.4,0.9-0.9,0.9h-3.3c-0.5,0-0.9-0.4-0.9-0.9v-3.2
				c0-0.5,0.4-0.9,0.9-0.9h3.3c0.5,0,0.9,0.4,0.9,0.9V419.5z"/>
		</g>
		<g id="XMLID_8_">
			<path id="XMLID_10_" class="st0" d="M-199,428.9c0,0.5-0.4,0.9-0.9,0.9h-43c-0.5,0-0.9-0.4-0.9-0.9v-3.2c0-0.5,0.4-0.9,0.9-0.9
				h43c0.5,0,0.9,0.4,0.9,0.9V428.9z"/>
			<path id="XMLID_9_" class="st0" d="M-246.3,428.9c0,0.5-0.4,0.9-0.9,0.9h-3.3c-0.5,0-0.9-0.4-0.9-0.9v-3.2c0-0.5,0.4-0.9,0.9-0.9
				h3.3c0.5,0,0.9,0.4,0.9,0.9V428.9z"/>
		</g>
		<g id="XMLID_5_">
			<path id="XMLID_7_" class="st0" d="M-199,438.3c0,0.5-0.4,0.9-0.9,0.9h-43c-0.5,0-0.9-0.4-0.9-0.9v-3.2c0-0.5,0.4-0.9,0.9-0.9h43
				c0.5,0,0.9,0.4,0.9,0.9V438.3z"/>
			<path id="XMLID_6_" class="st0" d="M-246.3,438.3c0,0.5-0.4,0.9-0.9,0.9h-3.3c-0.5,0-0.9-0.4-0.9-0.9v-3.2c0-0.5,0.4-0.9,0.9-0.9
				h3.3c0.5,0,0.9,0.4,0.9,0.9V438.3z"/>
		</g>
	</g>
</g>
</svg>
