<?xml version="1.0" encoding="utf-8"?>
<!-- Generator: Adobe Illustrator 19.0.0, SVG Export Plug-In . SVG Version: 6.00 Build 0)  -->
<svg version="1.1" id="Layer_1" xmlns="http://www.w3.org/2000/svg" xmlns:xlink="http://www.w3.org/1999/xlink" x="0px" y="0px"
	 viewBox="-247 366.2 99.3 108.7" style="enable-background:new -247 366.2 99.3 108.7;" xml:space="preserve">
<style type="text/css">
	.st0{fill:#46758B;}
</style>
<g>
	<path id="XMLID_15_" class="st0" d="M-197.5,366.2c-13.1,0-23.8,10.7-23.8,23.8c0,13.1,10.7,23.8,23.8,23.8s23.8-10.7,23.8-23.8
		C-173.6,376.9-184.3,366.2-197.5,366.2z"/>
	<path id="XMLID_14_" class="st0" d="M-176.1,408.6c-5.2,6-12.8,9.8-21.3,9.8s-16.1-3.8-21.3-9.8c-18,6.2-28.3,21.7-28.3,48.9
		c0,10.5,11.2,17.4,17.6,17.4h32.1h32.1c6.4,0,17.6-6.8,17.6-17.4C-147.8,430.3-158.1,414.8-176.1,408.6z"/>
</g>
</svg>
