<?xml version="1.0" encoding="utf-8"?>
<!-- Generator: Adobe Illustrator 19.0.0, SVG Export Plug-In . SVG Version: 6.00 Build 0)  -->
<svg version="1.1" id="Layer_1" xmlns="http://www.w3.org/2000/svg" xmlns:xlink="http://www.w3.org/1999/xlink" x="0px" y="0px"
	 viewBox="0 0 182.5 148.1" style="enable-background:new 0 0 182.5 148.1;" xml:space="preserve">
<style type="text/css">
	.st0{fill:#1A526E;}
</style>
<g id="XMLID_349_">
	<path id="XMLID_362_" class="st0" d="M142.6,116.7h-3.3c-0.8,0-1.5,0.5-1.5,1.1v29.3c0,0.6,0.7,1.1,1.5,1.1H181
		c0.8,0,1.5-0.5,1.5-1.1v-29.3c0-0.6-0.7-1.1-1.5-1.1h-3.3v-7c0-9.7-7.9-17.5-17.5-17.5c-9.7,0-17.5,7.9-17.5,17.5V116.7z
		 M149.2,109.7c0-6,4.9-10.9,10.9-10.9c6,0,10.9,4.9,10.9,10.9v7h-21.7V109.7z"/>
	<g id="XMLID_354_">
		<g id="XMLID_359_">
			<path id="XMLID_361_" class="st0" d="M150.7,64.4c0,1.2-1,2.2-2.2,2.2H44c-1.2,0-2.2-1-2.2-2.2v-7.8c0-1.2,1-2.2,2.2-2.2h104.6
				c1.2,0,2.2,1,2.2,2.2V64.4z"/>
			<path id="XMLID_360_" class="st0" d="M35.7,64.4c0,1.2-1,2.2-2.2,2.2h-7.9c-1.2,0-2.2-1-2.2-2.2v-7.8c0-1.2,1-2.2,2.2-2.2h7.9
				c1.2,0,2.2,1,2.2,2.2V64.4z"/>
		</g>
		<g id="XMLID_356_">
			<path id="XMLID_358_" class="st0" d="M150.7,87.2c0,1.2-1,2.2-2.2,2.2H44c-1.2,0-2.2-1-2.2-2.2v-7.8c0-1.2,1-2.2,2.2-2.2h104.6
				c1.2,0,2.2,1,2.2,2.2V87.2z"/>
			<path id="XMLID_357_" class="st0" d="M35.7,87.2c0,1.2-1,2.2-2.2,2.2h-7.9c-1.2,0-2.2-1-2.2-2.2v-7.8c0-1.2,1-2.2,2.2-2.2h7.9
				c1.2,0,2.2,1,2.2,2.2V87.2z"/>
		</g>
		<path id="XMLID_355_" class="st0" d="M35.7,110c0,1.2-1,2.2-2.2,2.2h-7.9c-1.2,0-2.2-1-2.2-2.2v-7.8c0-1.2,1-2.2,2.2-2.2h7.9
			c1.2,0,2.2,1,2.2,2.2V110z"/>
	</g>
	<g id="XMLID_352_">
		<path id="XMLID_353_" class="st0" d="M134.5,126H18.9c-3,0-5.4-2.4-5.4-5.4V46.1c0-3,2.4-5.4,5.4-5.4h136.4c3,0,5.4,2.4,5.4,5.4
			v42.5c5.1,0,9.8,1.9,13.5,5V5.4c0-3-2.4-5.4-5.4-5.4H5.4C2.4,0,0,2.4,0,5.4v125.2c0,3,2.4,5.4,5.4,5.4h129.1V126z"/>
	</g>
	<g id="XMLID_350_">
		<path id="XMLID_351_" class="st0" d="M139.4,109.7c0-3.5,0.9-6.8,2.4-9.7H44c-1.2,0-2.2,1-2.2,2.2v7.8c0,1.2,1,2.2,2.2,2.2h95.4
			V109.7z"/>
	</g>
</g>
</svg>
