<?xml version="1.0" encoding="utf-8"?>
<!-- Generator: Adobe Illustrator 19.0.0, SVG Export Plug-In . SVG Version: 6.00 Build 0)  -->
<svg version="1.1" id="Layer_1" xmlns="http://www.w3.org/2000/svg" xmlns:xlink="http://www.w3.org/1999/xlink" x="0px" y="0px"
	 viewBox="0 0 71.7 55.9" style="enable-background:new 0 0 71.7 55.9;" xml:space="preserve">
<style type="text/css">
	.st0{fill:#47768C;}
</style>
<g id="XMLID_3_">
	<path id="XMLID_14_" class="st0" d="M69.5,0H2.2C1,0,0,1,0,2.2v51.5c0,1.2,1,2.2,2.2,2.2h67.3c1.2,0,2.2-1,2.2-2.2V2.2
		C71.7,1,70.7,0,69.5,0z M66.1,49.6c0,1.2-1,2.2-2.2,2.2H7.8c-1.2,0-2.2-1-2.2-2.2V19c0-1.2,1-2.2,2.2-2.2h56.2c1.2,0,2.2,1,2.2,2.2
		V49.6z"/>
	<g id="XMLID_4_">
		<g id="XMLID_11_">
			<path id="XMLID_13_" class="st0" d="M62,26.5c0,0.5-0.4,0.9-0.9,0.9h-43c-0.5,0-0.9-0.4-0.9-0.9v-3.2c0-0.5,0.4-0.9,0.9-0.9h43
				c0.5,0,0.9,0.4,0.9,0.9V26.5z"/>
			<path id="XMLID_12_" class="st0" d="M14.7,26.5c0,0.5-0.4,0.9-0.9,0.9h-3.3c-0.5,0-0.9-0.4-0.9-0.9v-3.2c0-0.5,0.4-0.9,0.9-0.9
				h3.3c0.5,0,0.9,0.4,0.9,0.9V26.5z"/>
		</g>
		<g id="XMLID_8_">
			<path id="XMLID_10_" class="st0" d="M62,35.9c0,0.5-0.4,0.9-0.9,0.9h-43c-0.5,0-0.9-0.4-0.9-0.9v-3.2c0-0.5,0.4-0.9,0.9-0.9h43
				c0.5,0,0.9,0.4,0.9,0.9V35.9z"/>
			<path id="XMLID_9_" class="st0" d="M14.7,35.9c0,0.5-0.4,0.9-0.9,0.9h-3.3c-0.5,0-0.9-0.4-0.9-0.9v-3.2c0-0.5,0.4-0.9,0.9-0.9
				h3.3c0.5,0,0.9,0.4,0.9,0.9V35.9z"/>
		</g>
		<g id="XMLID_5_">
			<path id="XMLID_7_" class="st0" d="M62,45.3c0,0.5-0.4,0.9-0.9,0.9h-43c-0.5,0-0.9-0.4-0.9-0.9v-3.2c0-0.5,0.4-0.9,0.9-0.9h43
				c0.5,0,0.9,0.4,0.9,0.9V45.3z"/>
			<path id="XMLID_6_" class="st0" d="M14.7,45.3c0,0.5-0.4,0.9-0.9,0.9h-3.3c-0.5,0-0.9-0.4-0.9-0.9v-3.2c0-0.5,0.4-0.9,0.9-0.9
				h3.3c0.5,0,0.9,0.4,0.9,0.9V45.3z"/>
		</g>
	</g>
</g>
</svg>
